<svg width="127" height="39" viewBox="0 0 127 39" fill="none" xmlns="http://www.w3.org/2000/svg">
<path d="M1.88636 31V7.72727H7.51136V26.4318H17.1932V31H1.88636ZM28.2528 31.3295C26.4195 31.3295 24.8438 30.9545 23.5256 30.2045C22.215 29.447 21.2036 28.3939 20.4915 27.0455C19.7869 25.6894 19.4347 24.1174 19.4347 22.3295C19.4347 20.5341 19.7869 18.9621 20.4915 17.6136C21.2036 16.2576 22.215 15.2045 23.5256 14.4545C24.8438 13.697 26.4195 13.3182 28.2528 13.3182C30.0862 13.3182 31.6581 13.697 32.9688 14.4545C34.2869 15.2045 35.2983 16.2576 36.0028 17.6136C36.715 18.9621 37.071 20.5341 37.071 22.3295C37.071 24.1174 36.715 25.6894 36.0028 27.0455C35.2983 28.3939 34.2869 29.447 32.9688 30.2045C31.6581 30.9545 30.0862 31.3295 28.2528 31.3295ZM28.2869 27.1364C28.9536 27.1364 29.518 26.9318 29.9801 26.5227C30.4422 26.1136 30.7945 25.5455 31.0369 24.8182C31.2869 24.0909 31.4119 23.25 31.4119 22.2955C31.4119 21.3258 31.2869 20.4773 31.0369 19.75C30.7945 19.0227 30.4422 18.4545 29.9801 18.0455C29.518 17.6364 28.9536 17.4318 28.2869 17.4318C27.5975 17.4318 27.0142 17.6364 26.5369 18.0455C26.0672 18.4545 25.7074 19.0227 25.4574 19.75C25.215 20.4773 25.0938 21.3258 25.0938 22.2955C25.0938 23.25 25.215 24.0909 25.4574 24.8182C25.7074 25.5455 26.0672 26.1136 26.5369 26.5227C27.0142 26.9318 27.5975 27.1364 28.2869 27.1364ZM48.0653 31.3295C46.2244 31.3295 44.6449 30.9508 43.3267 30.1932C42.0161 29.4356 41.0085 28.3826 40.304 27.0341C39.5994 25.678 39.2472 24.1098 39.2472 22.3295C39.2472 20.5417 39.5994 18.9735 40.304 17.625C41.0161 16.2689 42.0275 15.2121 43.3381 14.4545C44.6563 13.697 46.2282 13.3182 48.054 13.3182C49.6676 13.3182 51.0729 13.6098 52.2699 14.1932C53.4744 14.7765 54.4138 15.6023 55.0881 16.6705C55.7699 17.7311 56.1297 18.9773 56.1676 20.4091H50.9744C50.8684 19.5152 50.5653 18.8144 50.0653 18.3068C49.5729 17.7992 48.929 17.5455 48.1335 17.5455C47.4896 17.5455 46.9252 17.7273 46.4403 18.0909C45.9555 18.447 45.5767 18.9773 45.304 19.6818C45.0388 20.3788 44.9062 21.2424 44.9062 22.2727C44.9062 23.303 45.0388 24.1742 45.304 24.8864C45.5767 25.5909 45.9555 26.125 46.4403 26.4886C46.9252 26.8447 47.4896 27.0227 48.1335 27.0227C48.6487 27.0227 49.1032 26.9129 49.4972 26.6932C49.8987 26.4735 50.2282 26.1515 50.4858 25.7273C50.7434 25.2955 50.9062 24.7727 50.9744 24.1591H56.1676C56.1146 25.5985 55.7547 26.8561 55.0881 27.9318C54.429 29.0076 53.5009 29.8447 52.304 30.4432C51.1146 31.0341 49.7017 31.3295 48.0653 31.3295ZM64.0227 26.4205L64.0455 19.7955H64.8182L69.7273 13.5455H76.0227L68.7273 22.5H67.2614L64.0227 26.4205ZM59.0114 31V7.72727H64.5682V31H59.0114ZM69.8523 31L65.2841 23.75L68.9432 19.8068L76.2727 31H69.8523ZM83.7045 7.72727L87.9545 15.0795H88.1364L92.4318 7.72727H98.7273L91.7045 19.3636L98.9545 31H92.5L88.1364 23.5682H87.9545L83.5909 31H77.1818L84.3977 19.3636L77.3636 7.72727H83.7045Z" fill="black"/>
<path d="M107.875 18.375V13.875C107.875 12.3832 108.468 10.9524 109.523 9.89752C110.577 8.84263 112.008 8.25 113.5 8.25C114.992 8.25 116.423 8.84263 117.477 9.89752C118.532 10.9524 119.125 12.3832 119.125 13.875V18.375M105.625 18.375H121.375C122.618 18.375 123.625 19.3824 123.625 20.625V28.5C123.625 29.7426 122.618 30.75 121.375 30.75H105.625C104.382 30.75 103.375 29.7426 103.375 28.5V20.625C103.375 19.3824 104.382 18.375 105.625 18.375Z" stroke="black" stroke-width="4" stroke-linecap="round" stroke-linejoin="round"/>
</svg>
