<svg width="169" height="48" viewBox="0 0 169 48" fill="none" xmlns="http://www.w3.org/2000/svg">
<path d="M139 22V14C139 11.3478 140.054 8.8043 141.929 6.92893C143.804 5.05357 146.348 4 149 4C151.652 4 154.196 5.05357 156.071 6.92893C157.946 8.8043 159 11.3478 159 14V22M135 22H163C165.209 22 167 23.7909 167 26V40C167 42.2091 165.209 44 163 44H135C132.791 44 131 42.2091 131 40V26C131 23.7909 132.791 22 135 22Z" stroke="#1E1E1E" stroke-width="4" stroke-linecap="round" stroke-linejoin="round"/>
<path d="M2.35795 39V9.90909H9.3892V33.2898H21.4915V39H2.35795ZM35.3161 39.4119C33.0244 39.4119 31.0547 38.9432 29.407 38.0057C27.7687 37.0587 26.5045 35.7424 25.6143 34.0568C24.7337 32.3617 24.2933 30.3968 24.2933 28.1619C24.2933 25.9176 24.7337 23.9527 25.6143 22.267C26.5045 20.572 27.7687 19.2557 29.407 18.3182C31.0547 17.3712 33.0244 16.8977 35.3161 16.8977C37.6077 16.8977 39.5727 17.3712 41.2109 18.3182C42.8587 19.2557 44.1229 20.572 45.0036 22.267C45.8937 23.9527 46.3388 25.9176 46.3388 28.1619C46.3388 30.3968 45.8937 32.3617 45.0036 34.0568C44.1229 35.7424 42.8587 37.0587 41.2109 38.0057C39.5727 38.9432 37.6077 39.4119 35.3161 39.4119ZM35.3587 34.1705C36.192 34.1705 36.8975 33.9148 37.4751 33.4034C38.0528 32.892 38.4931 32.1818 38.7962 31.2727C39.1087 30.3636 39.2649 29.3125 39.2649 28.1193C39.2649 26.9072 39.1087 25.8466 38.7962 24.9375C38.4931 24.0284 38.0528 23.3182 37.4751 22.8068C36.8975 22.2955 36.192 22.0398 35.3587 22.0398C34.4969 22.0398 33.7678 22.2955 33.1712 22.8068C32.584 23.3182 32.1342 24.0284 31.8217 24.9375C31.5187 25.8466 31.3672 26.9072 31.3672 28.1193C31.3672 29.3125 31.5187 30.3636 31.8217 31.2727C32.1342 32.1818 32.584 32.892 33.1712 33.4034C33.7678 33.9148 34.4969 34.1705 35.3587 34.1705ZM60.0817 39.4119C57.7805 39.4119 55.8061 38.9384 54.1584 37.9915C52.5201 37.0445 51.2607 35.7282 50.38 34.0426C49.4993 32.3475 49.0589 30.3873 49.0589 28.1619C49.0589 25.9271 49.4993 23.9669 50.38 22.2812C51.2701 20.5862 52.5343 19.2652 54.1726 18.3182C55.8203 17.3712 57.7853 16.8977 60.0675 16.8977C62.0845 16.8977 63.8411 17.2623 65.3374 17.9915C66.843 18.7206 68.0173 19.7528 68.8601 21.0881C69.7124 22.4138 70.1622 23.9716 70.2095 25.7614H63.718C63.5855 24.6439 63.2067 23.768 62.5817 23.1335C61.9661 22.4991 61.1612 22.1818 60.1669 22.1818C59.362 22.1818 58.6565 22.4091 58.0504 22.8636C57.4444 23.3087 56.9709 23.9716 56.63 24.8523C56.2985 25.7235 56.1328 26.803 56.1328 28.0909C56.1328 29.3788 56.2985 30.4678 56.63 31.358C56.9709 32.2386 57.4444 32.9062 58.0504 33.3608C58.6565 33.8059 59.362 34.0284 60.1669 34.0284C60.8108 34.0284 61.379 33.8911 61.8714 33.6165C62.3733 33.3419 62.7853 32.9394 63.1072 32.4091C63.4292 31.8693 63.6328 31.2159 63.718 30.4489H70.2095C70.1432 32.2481 69.6934 33.8201 68.8601 35.1648C68.0362 36.5095 66.8762 37.5559 65.38 38.304C63.8932 39.0426 62.1271 39.4119 60.0817 39.4119ZM80.0284 33.2756L80.0568 24.9943H81.0227L87.1591 17.1818H95.0284L85.9091 28.375H84.0767L80.0284 33.2756ZM73.7642 39V9.90909H80.7102V39H73.7642ZM87.3153 39L81.6051 29.9375L86.179 25.0085L95.3409 39H87.3153ZM104.631 9.90909L109.943 19.0994H110.17L115.54 9.90909H123.409L114.631 24.4545L123.693 39H115.625L110.17 29.7102H109.943L104.489 39H96.4773L105.497 24.4545L96.7045 9.90909H104.631Z" fill="black"/>
</svg>
